<?xml version="1.0" encoding="iso-8859-1"?>
<svg version="1.1" id="elevation-gain-icon" xmlns="http://www.w3.org/2000/svg" xmlns:xlink="http://www.w3.org/1999/xlink" x="0px" y="0px"
	 viewBox="0 0 368 368" style="enable-background:new 0 0 368 368;" xml:space="preserve">
<g>
	<g>
		<path d="M364.468,219.404c-2.728-2.732-5.636-3.408-9.484-3.408h-10.952c-3.84,0-8.26,0.676-10.992,3.404
			c-2.736,2.736-5.04,5.52-5.04,9.36v73.68L65.756,40h73.332C147.048,40,152,32.12,152,24.164V13.212C152,5.524,146.776,0,139.092,0
			H13.396c-3.932,0-6.96,0.968-9.72,3.836C0.92,6.484,0,9.56,0,13.492V139.24C0,146.92,5.428,152,13.12,152h10.952
			C32.024,152,40,147.196,40,139.24V67.632L300.272,328h-71.26C221.06,328,216,335.888,216,343.836v10.952
			c0,7.688,5.328,13.212,13.016,13.212h125.692c3.932,0,6.912-0.968,9.668-3.836c2.756-2.652,3.624-5.724,3.624-9.656V228.76
			C368,224.92,367.204,222.136,364.468,219.404z"/>
	</g>
</g>
</svg>
