<?xml version="1.0" encoding="iso-8859-1"?>
<!-- Generator: Adobe Illustrator 19.0.0, SVG Export Plug-In . SVG Version: 6.00 Build 0)  -->
<svg version="1.1" id="mail-icon" xmlns="http://www.w3.org/2000/svg" xmlns:xlink="http://www.w3.org/1999/xlink" x="0px" y="0px"
	 viewBox="0 0 512 512" style="enable-background:new 0 0 512 512;" xml:space="preserve">
<g>
	<g>
		<polygon points="339.392,338.62 512,447.74 512,224.892 		"/>
	</g>
</g>
<g>
	<g>
		<polygon points="0,224.892 0,447.74 172.608,338.62 		"/>
	</g>
</g>
<g>
	<g>
		<path d="M264.48,2.428c-5.184-3.232-11.776-3.232-16.96,0L0,159.996v26.592L256,355.26l256-168.672v-26.592L264.48,2.428z"/>
	</g>
</g>
<g>
	<g>
		<path d="M310.08,357.948l-45.28,29.824c-2.688,1.76-5.728,2.624-8.8,2.624c-3.072,0-6.112-0.864-8.8-2.624l-45.28-29.856
			L1.024,484.988c2.464,15.2,15.072,27.008,30.976,27.008h448c15.904,0,28.512-11.808,30.976-27.008L310.08,357.948z"/>
	</g>
</g>
</svg>
