<?xml version="1.0" standalone="no"?>
<!DOCTYPE svg PUBLIC "-//W3C//DTD SVG 20010904//EN"
 "http://www.w3.org/TR/2001/REC-SVG-20010904/DTD/svg10.dtd">
<svg version="1.0" xmlns="http://www.w3.org/2000/svg"
 width="700.000000pt" height="700.000000pt" viewBox="0 0 700.000000 700.000000"
 preserveAspectRatio="xMidYMid meet">
<metadata>
Created by potrace 1.11, written by Peter Selinger 2001-2013
</metadata>
<g transform="translate(0.000000,700.000000) scale(0.100000,-0.100000)"
fill="#000000" stroke="none">
<path d="M1813 5733 l-239 -598 -182 -3 -182 -2 0 300 0 300 -240 0 -240 0 0
-299 0 -298 -178 -5 c-157 -5 -185 -8 -245 -31 -142 -52 -232 -145 -285 -296
-15 -42 -17 -208 -19 -1856 -2 -1107 0 -1836 6 -1878 25 -178 149 -325 320
-377 62 -20 110 -20 3171 -20 3061 0 3109 0 3171 20 171 52 295 199 320 377 6
42 8 771 6 1878 -2 1648 -4 1814 -19 1856 -53 150 -141 242 -285 297 l-68 27
-599 5 -600 5 -239 598 -239 597 -1448 0 -1448 0 -239 -597z m4459 -1105 c85
-29 162 -98 208 -186 103 -198 -19 -454 -244 -509 -244 -59 -481 161 -437 408
33 188 198 319 383 303 32 -3 72 -10 90 -16z m-2597 -243 c126 -20 226 -49
330 -99 321 -153 543 -405 644 -731 41 -134 53 -216 53 -365 -1 -512 -327
-963 -817 -1129 -432 -146 -919 -31 -1240 293 -227 228 -346 517 -347 836 0
149 12 231 53 365 101 326 323 578 644 731 209 99 455 135 680 99z"/>
<path d="M3613 4040 c-116 -17 -253 -112 -304 -212 -25 -50 -49 -125 -49 -157
0 -53 -26 -106 -78 -162 l-54 -59 11 -50 c6 -28 17 -63 25 -78 21 -40 76 -89
121 -107 49 -21 139 -22 188 -2 33 14 42 14 89 1 64 -20 178 -20 239 -1 61 19
150 78 195 131 76 88 109 187 102 306 -4 70 -10 92 -48 166 -27 54 -58 98 -84
120 -97 84 -227 122 -353 104z"/>
</g>
</svg>
